<svg width="10" height="10" viewBox="0 0 10 10" fill="none" xmlns="http://www.w3.org/2000/svg">
<path d="M9.75179 4.40384C9.6744 4.32581 9.58233 4.26388 9.48088 4.22162C9.37944 4.17935 9.27063 4.15759 9.16073 4.15759C9.05083 4.15759 8.94202 4.17935 8.84058 4.22162C8.73913 4.26388 8.64706 4.32581 8.56967 4.40384L5.83079 7.15104V0.832484C5.83079 0.611695 5.74309 0.39995 5.58697 0.243829C5.43084 0.087708 5.2191 0 4.99831 0C4.77752 0 4.56578 0.087708 4.40966 0.243829C4.25353 0.39995 4.16583 0.611695 4.16583 0.832484V7.15104L1.42695 4.40384C1.27019 4.24708 1.05758 4.15901 0.83589 4.15901C0.614198 4.15901 0.401586 4.24708 0.244827 4.40384C0.0880668 4.5606 0 4.77321 0 4.9949C0 5.21659 0.0880668 5.42921 0.244827 5.58597L4.40725 9.74838C4.48642 9.82417 4.57978 9.88359 4.68197 9.92321C4.78161 9.96725 4.88936 9.99 4.99831 9.99C5.10726 9.99 5.21501 9.96725 5.31465 9.92321C5.41684 9.88359 5.5102 9.82417 5.58937 9.74838L9.75179 5.58597C9.82982 5.50858 9.89175 5.4165 9.93402 5.31506C9.97628 5.21361 9.99804 5.1048 9.99804 4.9949C9.99804 4.885 9.97628 4.7762 9.93402 4.67475C9.89175 4.5733 9.82982 4.48123 9.75179 4.40384Z" fill="#6E57E0"/>
</svg>
