<svg width="25" height="28" viewBox="0 0 25 28" fill="none" xmlns="http://www.w3.org/2000/svg">
    <path d="M7.5 6.25a1.25 1.25 0 1 0 0-2.5 1.25 1.25 0 0 0 0 2.5zM23.75 22.5h-7.725a3.75 3.75 0 0 0-2.275-2.275V17.5h5a3.75 3.75 0 0 0 3.75-3.75v-2.5a3.75 3.75 0 0 0-.975-2.5 3.75 3.75 0 0 0 .975-2.5v-2.5A3.75 3.75 0 0 0 18.75 0H6.25A3.75 3.75 0 0 0 2.5 3.75v2.5a3.75 3.75 0 0 0 .975 2.5 3.75 3.75 0 0 0-.975 2.5v2.5a3.75 3.75 0 0 0 3.75 3.75h5v2.725A3.75 3.75 0 0 0 8.975 22.5H1.25a1.25 1.25 0 0 0 0 2.5h7.725a3.75 3.75 0 0 0 7.05 0h7.725a1.25 1.25 0 0 0 0-2.5zM5 3.75A1.25 1.25 0 0 1 6.25 2.5h12.5A1.25 1.25 0 0 1 20 3.75v2.5a1.25 1.25 0 0 1-1.25 1.25H6.25A1.25 1.25 0 0 1 5 6.25v-2.5zM6.25 15A1.25 1.25 0 0 1 5 13.75v-2.5A1.25 1.25 0 0 1 6.25 10h12.5A1.25 1.25 0 0 1 20 11.25v2.5A1.25 1.25 0 0 1 18.75 15H6.25zm6.25 10a1.25 1.25 0 1 1 0-2.5 1.25 1.25 0 0 1 0 2.5zm-5-13.75a1.25 1.25 0 1 0 0 2.5 1.25 1.25 0 0 0 0-2.5z" fill="#9200d1"/>
</svg>
