<svg width="12" height="12" viewBox="0 0 12 12" fill="none" xmlns="http://www.w3.org/2000/svg">
    <path d="M6 7.2A.6.6 0 1 0 6 6a.6.6 0 0 0 0 1.2zm3 0A.6.6 0 1 0 9 6a.6.6 0 0 0 0 1.2zM6 9.6a.6.6 0 1 0 0-1.2.6.6 0 0 0 0 1.2zm3 0a.6.6 0 1 0 0-1.2.6.6 0 0 0 0 1.2zM3 7.2A.6.6 0 1 0 3 6a.6.6 0 0 0 0 1.2zm7.2-6h-.6V.6a.6.6 0 1 0-1.2 0v.6H3.6V.6a.6.6 0 1 0-1.2 0v.6h-.6A1.8 1.8 0 0 0 0 3v7.2A1.8 1.8 0 0 0 1.8 12h8.4a1.8 1.8 0 0 0 1.8-1.8V3a1.8 1.8 0 0 0-1.8-1.8zm.6 9a.6.6 0 0 1-.6.6H1.8a.6.6 0 0 1-.6-.6V4.8h9.6v5.4zm0-6.6H1.2V3a.6.6 0 0 1 .6-.6h8.4a.6.6 0 0 1 .6.6v.6zM3 9.6a.6.6 0 1 0 0-1.2.6.6 0 0 0 0 1.2z" fill="#A19FAD"/>
</svg>
