<svg width="16" height="9" viewBox="0 0 16 9" fill="none" xmlns="http://www.w3.org/2000/svg">
    <path d="M.413 2.465 6.94 8.574c.141.135.31.242.495.315a1.595 1.595 0 0 0 1.17 0c.185-.073.353-.18.495-.315l6.45-6.11c.143-.133.256-.292.333-.468a1.376 1.376 0 0 0 0-1.108 1.438 1.438 0 0 0-.333-.469A1.566 1.566 0 0 0 14.477 0c-.401 0-.787.15-1.072.419l-5.385 5.1L2.634.42A1.596 1.596 0 0 0 .985.109a1.53 1.53 0 0 0-.496.31C.342.549.222.704.14.877a1.378 1.378 0 0 0 .274 1.588z" fill="#9200d1"/>
</svg>
