<svg width="16" height="16" viewBox="0 0 16 16" fill="none" xmlns="http://www.w3.org/2000/svg">
    <path d="M14.67 5.851 3.472.251a2.4 2.4 0 0 0-3.264 3.12l1.92 4.296a.848.848 0 0 1 0 .656l-1.92 4.296A2.4 2.4 0 0 0 2.4 15.995a2.512 2.512 0 0 0 1.08-.256l11.2-5.6a2.4 2.4 0 0 0 0-4.288h-.008zm-.711 2.856-11.2 5.6a.8.8 0 0 1-1.08-1.04L3.591 8.97c.025-.057.046-.116.064-.176h5.512a.8.8 0 1 0 0-1.6H3.655a1.601 1.601 0 0 0-.064-.176L1.68 2.723a.8.8 0 0 1 1.08-1.04l11.2 5.6a.8.8 0 0 1 0 1.424z" fill="#6D6A7C"/>
</svg>
