<svg width="16" height="16" viewBox="0 0 16 16" fill="none" xmlns="http://www.w3.org/2000/svg">
    <title>dark mode</title>
    <path d="M15.686 8.804a.788.788 0 0 0-.84-.115 6.283 6.283 0 0 1-2.694.6 6.423 6.423 0 0 1-4.587-1.952 6.802 6.802 0 0 1-1.92-4.71 7.26 7.26 0 0 1 .2-1.646.845.845 0 0 0-.267-.785.79.79 0 0 0-.796-.144 8.152 8.152 0 0 0-3.166 2.61 8.474 8.474 0 0 0-1.54 3.861 8.566 8.566 0 0 0 .47 4.146 8.339 8.339 0 0 0 2.365 3.393 8.01 8.01 0 0 0 3.665 1.788 7.889 7.889 0 0 0 4.049-.263 8.084 8.084 0 0 0 3.418-2.248 8.418 8.418 0 0 0 1.93-3.671.846.846 0 0 0-.016-.477.821.821 0 0 0-.271-.387zM8.09 14.307a6.384 6.384 0 0 1-3.739-1.249 6.682 6.682 0 0 1-2.357-3.236 6.88 6.88 0 0 1-.116-4.044 6.712 6.712 0 0 1 2.167-3.374v.222a8.473 8.473 0 0 0 2.377 5.896 8 8 0 0 0 5.73 2.445 7.618 7.618 0 0 0 1.678-.18 6.595 6.595 0 0 1-2.39 2.598 6.345 6.345 0 0 1-3.35.955v-.033z" fill="#000"/>
</svg>
