<svg width="25" height="25" viewBox="0 0 25 25" fill="none" xmlns="http://www.w3.org/2000/svg">
    <path d="M6.25 17.5a1.25 1.25 0 1 0 0 2.5 1.25 1.25 0 0 0 0-2.5zm15.075-5 1.538-1.537a3.75 3.75 0 0 0 0-5.3l-3.538-3.526a3.75 3.75 0 0 0-5.3 0L12.5 3.676A3.75 3.75 0 0 0 8.75 0h-5A3.75 3.75 0 0 0 0 3.75v17.5A3.75 3.75 0 0 0 3.75 25h17.5A3.75 3.75 0 0 0 25 21.25v-5a3.75 3.75 0 0 0-3.675-3.75zM10 21.25a1.25 1.25 0 0 1-1.25 1.25h-5a1.25 1.25 0 0 1-1.25-1.25V3.75A1.25 1.25 0 0 1 3.75 2.5h5A1.25 1.25 0 0 1 10 3.75v17.5zM12.5 7.2l3.3-3.3a1.25 1.25 0 0 1 1.762 0L21.1 7.5a1.25 1.25 0 0 1 0 1.762l-3.6 3.6-5 4.938V7.2zm10 14.05a1.25 1.25 0 0 1-1.25 1.25h-8.975a3.9 3.9 0 0 0 .213-1.15l6.35-6.35h2.412a1.25 1.25 0 0 1 1.25 1.25v5z" fill="#9200d1"/>
</svg>
