<svg width="15" height="17" viewBox="0 0 15 17" fill="none" xmlns="http://www.w3.org/2000/svg">
    <path d="M4.408 9.597a.851.851 0 0 0-.246.603.865.865 0 0 0 .246.604l2.5 2.55a.833.833 0 0 0 .592.25.82.82 0 0 0 .592-.25l2.5-2.55a.862.862 0 0 0 0-1.207.829.829 0 0 0-1.184 0L8.333 10.7V.85A.859.859 0 0 0 8.09.249a.825.825 0 0 0-1.178 0 .859.859 0 0 0-.244.601v9.851L5.592 9.598A.833.833 0 0 0 5 9.345a.82.82 0 0 0-.592.252zM12.5 5.95h-1.667a.825.825 0 0 0-.589.249.859.859 0 0 0 0 1.202c.156.16.368.249.59.249H12.5c.221 0 .433.09.59.249.155.16.243.376.243.601v5.95a.859.859 0 0 1-.244.601.825.825 0 0 1-.589.249h-10a.825.825 0 0 1-.59-.249.859.859 0 0 1-.243-.601V8.5c0-.225.087-.442.244-.601A.825.825 0 0 1 2.5 7.65h1.667c.22 0 .433-.09.589-.249a.859.859 0 0 0 0-1.202.825.825 0 0 0-.59-.249H2.5c-.663 0-1.299.269-1.768.747A2.576 2.576 0 0 0 0 8.5v5.95c0 .676.263 1.325.732 1.803A2.475 2.475 0 0 0 2.5 17h10c.663 0 1.299-.269 1.768-.747A2.576 2.576 0 0 0 15 14.45V8.5c0-.676-.263-1.325-.732-1.803A2.476 2.476 0 0 0 12.5 5.95z" fill="#fff"/>
</svg>
