<svg width="24" height="19" viewBox="0 0 24 19" fill="none" xmlns="http://www.w3.org/2000/svg">
    <path d="m23.417 6.412-1.143-.628L11.987.069h-.126A1.212 1.212 0 0 0 11.644 0h-.423a1.337 1.337 0 0 0-.229.069h-.125L.579 5.784a1.143 1.143 0 0 0 0 1.989L3.426 9.35v5.418a3.43 3.43 0 0 0 3.429 3.429h9.144a3.43 3.43 0 0 0 3.429-3.43V9.35l2.286-1.28v3.269a1.143 1.143 0 1 0 2.286 0V7.407a1.143 1.143 0 0 0-.583-.995zm-6.275 8.356a1.143 1.143 0 0 1-1.143 1.143H6.855a1.143 1.143 0 0 1-1.143-1.143v-4.15l5.155 2.858.171.069h.103c.095.012.19.012.286 0 .095.012.19.012.286 0h.102a.536.536 0 0 0 .172-.069l5.155-2.857v4.149zm-5.715-3.59L3.494 6.768l7.933-4.412 7.932 4.412-7.932 4.412z" fill="#6E57E0"/>
</svg>
