<svg width="13" height="20" viewBox="0 0 13 20" fill="none" xmlns="http://www.w3.org/2000/svg">
    <path d="M12.841 7.673a.944.944 0 0 0-.77-.4H9.284V5.455h2.043a.939.939 0 0 0 .656-.267.9.9 0 0 0 .272-.643V.91a.9.9 0 0 0-.272-.643.939.939 0 0 0-.656-.266H8.356a5.444 5.444 0 0 0-3.808 1.544 5.217 5.217 0 0 0-1.577 3.729v2H.928a.939.939 0 0 0-.656.266.9.9 0 0 0-.272.643v3.636a.9.9 0 0 0 .272.643c.174.17.41.266.656.266h2.043v6.364a.9.9 0 0 0 .272.643c.174.17.41.266.657.266h4.456a.939.939 0 0 0 .657-.266.9.9 0 0 0 .272-.643v-6.364h1.3a.943.943 0 0 0 .521-.156.913.913 0 0 0 .342-.416l1.486-3.637a.891.891 0 0 0-.093-.845zm-2.888 3.236H8.356a.939.939 0 0 0-.656.266.9.9 0 0 0-.272.643v6.364h-2.6v-6.364a.9.9 0 0 0-.272-.643.939.939 0 0 0-.656-.266H1.857V9.091H3.9a.939.939 0 0 0 .656-.266.9.9 0 0 0 .272-.643v-2.91a3.427 3.427 0 0 1 1.036-2.44 3.576 3.576 0 0 1 2.492-1.014H10.4v1.818h-.743a2.37 2.37 0 0 0-1.782.473 1.577 1.577 0 0 0-.446 1.164v2.909a.9.9 0 0 0 .272.643c.174.17.41.266.656.266h2.34l-.743 1.818z" fill="#F0EEFC"/>
</svg>
