<svg width="29" height="33" viewBox="0 0 29 33" fill="none" xmlns="http://www.w3.org/2000/svg">
    <path d="M4 15.467c.77-.08 1.355-.312 1.756-.697.417-.384.625-.888.625-1.513 0-.576-.064-1.633-.192-3.17-.145-1.442-.217-2.595-.217-3.46 0-1.137.329-2.026.986-2.666C7.632 3.32 8.514 3 9.604 3h1.612v2.378h-1.058c-.514 0-.899.12-1.155.36-.24.225-.36.593-.36 1.105 0 .385.023.897.071 1.538.048.64.08 1.097.097 1.369.144 1.473.216 2.674.216 3.603 0 .817-.208 1.498-.625 2.042-.401.545-1.027.905-1.876 1.081v.048c.85.176 1.475.537 1.876 1.081.417.544.625 1.225.625 2.042 0 .929-.072 2.13-.216 3.603-.017.272-.049.729-.097 1.37-.048.64-.072 1.152-.072 1.537 0 .512.12.88.36 1.105.257.24.642.36 1.155.36h1.059V30H9.604c-1.09 0-1.972-.32-2.646-.96-.657-.641-.986-1.53-.986-2.667 0-.865.072-2.018.217-3.46.128-1.537.192-2.594.192-3.17 0-.625-.208-1.13-.625-1.513-.401-.385-.986-.617-1.756-.697v-2.066zM29 17.533c-.77.08-1.363.312-1.78.697-.4.384-.601.888-.601 1.513 0 .576.064 1.633.192 3.17.145 1.442.217 2.595.217 3.46 0 1.137-.337 2.026-1.01 2.666-.658.64-1.532.961-2.622.961h-1.612v-2.378h1.059c.513 0 .89-.12 1.13-.36.257-.225.385-.593.385-1.105 0-.385-.024-.897-.072-1.538a97.14 97.14 0 0 1-.097-1.369c-.144-1.473-.216-2.674-.216-3.603 0-.817.2-1.497.601-2.042.417-.544 1.05-.905 1.9-1.081v-.048c-.85-.176-1.483-.536-1.9-1.081-.4-.544-.601-1.225-.601-2.042 0-.929.072-2.13.216-3.603.017-.272.049-.729.097-1.37.048-.64.072-1.152.072-1.537 0-.512-.128-.88-.385-1.105-.24-.24-.617-.36-1.13-.36h-1.059V3h1.612c1.09 0 1.964.32 2.621.96.674.641 1.01 1.53 1.01 2.667 0 .865-.072 2.018-.216 3.46-.128 1.537-.192 2.594-.192 3.17 0 .625.2 1.13.601 1.514.417.384 1.01.616 1.78.696v2.066z" fill="#9200d1"/>
</svg>
