<svg width="18" height="20" viewBox="0 0 18 20" fill="none" xmlns="http://www.w3.org/2000/svg">
    <path d="M7.5 17.167a.88.88 0 0 0-1.04-.865c-1.152.211-2.606.243-2.993-.843a5.024 5.024 0 0 0-1.617-2.126c-.051-.028-.1-.06-.146-.096a.88.88 0 0 0-.82-.568H.88a.88.88 0 0 0-.88.876c-.003.717.714 1.177 1.005 1.333.343.344.619.75.813 1.196.32.9 1.252 2.267 3.93 2.091l.002.087.004.236a.88.88 0 1 0 1.76 0l-.004-.28c-.004-.167-.01-.409-.01-1.04zm9.388-13.312c.028-.11.055-.232.08-.37a5.525 5.525 0 0 0-.36-2.898.881.881 0 0 0-.542-.51c-.313-.106-1.47-.314-3.682 1.1a12.206 12.206 0 0 0-5.592 0C4.588-.217 3.438-.027 3.127.072a.878.878 0 0 0-.555.514 5.545 5.545 0 0 0-.355 2.954c.021.113.044.217.068.312a5.518 5.518 0 0 0-1.104 3.37c-.003.271.01.542.037.812.294 4.05 2.934 5.266 4.774 5.684-.038.11-.073.228-.104.353a.88.88 0 0 0 1.71.42c.055-.293.199-.562.411-.772a.88.88 0 0 0-.48-1.536c-3.04-.347-4.36-1.586-4.559-4.311a5.816 5.816 0 0 1-.03-.65 3.747 3.747 0 0 1 .982-2.591.88.88 0 0 0 .166-.902 2.981 2.981 0 0 1-.137-.489 3.603 3.603 0 0 1 .07-1.421 6.638 6.638 0 0 1 2.125 1.038.888.888 0 0 0 .728.117 10.365 10.365 0 0 1 5.433 0 .885.885 0 0 0 .73-.12 6.664 6.664 0 0 1 2.118-1.048c.117.453.143.925.077 1.389a2.81 2.81 0 0 1-.149.534.88.88 0 0 0 .165.902c.068.076.136.159.197.236.534.667.815 1.501.794 2.355.002.229-.01.457-.033.684-.194 2.69-1.519 3.93-4.573 4.277a.88.88 0 0 0-.48 1.537c.219.216.363.496.41.8.06.235.087.477.082.72v2.054c-.009.57-.009.997-.009 1.194a.88.88 0 1 0 1.76 0c0-.191 0-.61.009-1.18V15.24a4.295 4.295 0 0 0-.136-1.154 3.75 3.75 0 0 0-.103-.366 5.732 5.732 0 0 0 4.793-5.654 7.65 7.65 0 0 0 .04-.844 5.396 5.396 0 0 0-1.111-3.367z"/>
</svg>
