<svg width="18" height="18" viewBox="0 0 18 18" fill="none" xmlns="http://www.w3.org/2000/svg">
    <path d="M9 4.5a4.5 4.5 0 1 0 0 9 4.5 4.5 0 0 0 0-9zm0 7.2a2.7 2.7 0 1 1 0-5.401A2.7 2.7 0 0 1 9 11.7zm4.5-8.1a.9.9 0 1 0 0 1.8.9.9 0 0 0 0-1.8zm4.446 2.016a6.758 6.758 0 0 0-.432-2.25 5.005 5.005 0 0 0-2.88-2.88 6.76 6.76 0 0 0-2.25-.432C11.511 0 11.223 0 9 0S6.489 0 5.616.054c-.77.015-1.53.161-2.25.432a5.004 5.004 0 0 0-2.88 2.88 6.759 6.759 0 0 0-.432 2.25C0 6.498 0 6.786 0 9s0 2.502.054 3.384c.015.77.161 1.53.432 2.25a5.005 5.005 0 0 0 2.88 2.88c.72.271 1.48.417 2.25.432.9 0 1.161.054 3.384.054s2.511 0 3.384-.054a6.759 6.759 0 0 0 2.25-.432 5.006 5.006 0 0 0 2.88-2.88c.271-.72.417-1.48.432-2.25 0-.9.054-1.17.054-3.384s0-2.502-.054-3.384zm-1.8 6.687a5.4 5.4 0 0 1-.315 1.674 3.06 3.06 0 0 1-.738 1.125 2.933 2.933 0 0 1-1.125.729c-.54.2-1.108.31-1.683.324-.846 0-1.107.045-3.294.045H5.706a5.4 5.4 0 0 1-1.683-.315 3.06 3.06 0 0 1-1.125-.738 2.934 2.934 0 0 1-.729-1.125 5.166 5.166 0 0 1-.324-1.674V5.742a5.274 5.274 0 0 1 .324-1.683 2.97 2.97 0 0 1 .729-1.116 2.934 2.934 0 0 1 1.125-.729c.54-.2 1.108-.31 1.683-.324C6.552 1.8 6.813 1.8 9 1.8h3.294c.578.015 1.15.124 1.692.324a2.97 2.97 0 0 1 1.116.729c.327.314.576.699.729 1.125.22.548.345 1.13.369 1.719 0 .9.045 1.125.045 3.303s-.045 2.439-.045 3.303h-.054z" fill="#F0EEFC"/>
</svg>
