<svg width="18" height="19" viewBox="0 0 18 19" fill="none" xmlns="http://www.w3.org/2000/svg">
    <path d="M13.376 6.274c-.752 0-1.493.186-2.156.542a.84.84 0 0 0-.786-.542H7.07a.84.84 0 0 0-.84.84v10.089a.84.84 0 0 0 .84.84h3.363a.84.84 0 0 0 .84-.84v-4.624a.841.841 0 0 1 1.682 0v4.624a.841.841 0 0 0 .84.84h3.363a.84.84 0 0 0 .841-.84v-6.305a4.63 4.63 0 0 0-4.624-4.624zm2.943 10.088h-1.682v-3.783a2.522 2.522 0 0 0-5.044 0v3.783H7.912V7.955h1.681v.591a.841.841 0 0 0 1.498.526 2.928 2.928 0 0 1 5.228 1.826v5.464zM4.549 6.274H1.186a.84.84 0 0 0-.84.84v10.089a.84.84 0 0 0 .84.84H4.55a.84.84 0 0 0 .84-.84V7.114a.84.84 0 0 0-.84-.84zm-.84 10.088H2.027V7.955H3.71v8.407zM2.88.005a2.718 2.718 0 1 0-.047 5.428h.023A2.718 2.718 0 1 0 2.88.005zm-.024 3.747h-.023a1.027 1.027 0 0 1-1.151-1.033c0-.627.47-1.033 1.198-1.033A1.037 1.037 0 0 1 4.054 2.72c0 .627-.47 1.033-1.198 1.033z"/>
</svg>
