<svg width="14" height="14" viewBox="0 0 14 14" fill="none" xmlns="http://www.w3.org/2000/svg">
<path d="M8.23286 6.99851L13.7414 1.49874C13.906 1.3341 13.9985 1.11079 13.9985 0.877944C13.9985 0.645099 13.906 0.42179 13.7414 0.257144C13.5767 0.0924975 13.3534 0 13.1206 0C12.8877 0 12.6644 0.0924975 12.4998 0.257144L7 5.76565L1.50024 0.257144C1.33559 0.0924975 1.11228 2.0673e-07 0.879436 2.08465e-07C0.646591 2.102e-07 0.423282 0.0924975 0.258636 0.257144C0.0939896 0.42179 0.0014924 0.645099 0.0014924 0.877944C0.0014924 1.11079 0.0939896 1.3341 0.258636 1.49874L5.76714 6.99851L0.258636 12.4983C0.176683 12.5796 0.111635 12.6763 0.067245 12.7828C0.0228546 12.8894 0 13.0036 0 13.1191C0 13.2345 0.0228546 13.3488 0.067245 13.4553C0.111635 13.5619 0.176683 13.6586 0.258636 13.7399C0.33992 13.8218 0.436626 13.8869 0.543175 13.9313C0.649725 13.9757 0.764009 13.9985 0.879436 13.9985C0.994863 13.9985 1.10915 13.9757 1.2157 13.9313C1.32225 13.8869 1.41895 13.8218 1.50024 13.7399L7 8.23136L12.4998 13.7399C12.581 13.8218 12.6778 13.8869 12.7843 13.9313C12.8909 13.9757 13.0051 13.9985 13.1206 13.9985C13.236 13.9985 13.3503 13.9757 13.4568 13.9313C13.5634 13.8869 13.6601 13.8218 13.7414 13.7399C13.8233 13.6586 13.8884 13.5619 13.9328 13.4553C13.9771 13.3488 14 13.2345 14 13.1191C14 13.0036 13.9771 12.8894 13.9328 12.7828C13.8884 12.6763 13.8233 12.5796 13.7414 12.4983L8.23286 6.99851Z" fill="#6D6A7C"/>
</svg>
