<svg width="27" height="27" viewBox="0 0 27 27" fill="none" xmlns="http://www.w3.org/2000/svg">
    <path d="M23.653 14.893c-.298 0-.61-.095-.907-.163a12.767 12.767 0 0 1-1.775-.53 2.703 2.703 0 0 0-3.36 1.359l-.298.611a16.51 16.51 0 0 1-3.604-2.717 16.55 16.55 0 0 1-2.71-3.615l.57-.38a2.725 2.725 0 0 0 1.355-3.37 14.078 14.078 0 0 1-.53-1.78 10.14 10.14 0 0 1-.162-.924A4.08 4.08 0 0 0 10.822.94 4.057 4.057 0 0 0 8.167 0H4.103a4.054 4.054 0 0 0-3.09 1.384 4.08 4.08 0 0 0-.975 3.25 25.846 25.846 0 0 0 7.367 15.032A25.713 25.713 0 0 0 22.421 27h.514A4.058 4.058 0 0 0 27 22.91v-4.076a4.083 4.083 0 0 0-.97-2.572 4.062 4.062 0 0 0-2.377-1.369zm.678 8.153a1.363 1.363 0 0 1-.98 1.306 1.432 1.432 0 0 1-.592.053 23.007 23.007 0 0 1-13.396-6.617A23.127 23.127 0 0 1 2.83 4.32a1.485 1.485 0 0 1 .339-1.114 1.355 1.355 0 0 1 1.016-.462H8.25A1.352 1.352 0 0 1 9.603 3.82c.055.371.122.738.204 1.1.156.717.364 1.42.623 2.106l-1.897.884a1.355 1.355 0 0 0-.789 1.29c.008.179.05.355.125.517a19.66 19.66 0 0 0 9.484 9.512c.33.135.7.135 1.03 0a1.353 1.353 0 0 0 .772-.707l.84-1.902c.7.25 1.416.46 2.141.625.361.081.727.15 1.097.204a1.354 1.354 0 0 1 1.07 1.358l.028 4.24z" fill="#9200d1"/>
</svg>
