<svg width="16" height="16" viewBox="0 0 16 16" fill="none" xmlns="http://www.w3.org/2000/svg">
    <path d="M13.6 0H2.4A2.4 2.4 0 0 0 0 2.4v11.2A2.4 2.4 0 0 0 2.4 16h11.2c.132-.002.263-.015.392-.04l.24-.056h.096l.296-.112.104-.056c.08-.048.168-.088.248-.144.107-.079.208-.164.304-.256l.056-.072c.079-.08.15-.165.216-.256l.072-.104c.056-.09.104-.183.144-.28a.793.793 0 0 0 .056-.12c.04-.096.064-.2.096-.304v-.12c.045-.156.072-.317.08-.48V2.4A2.4 2.4 0 0 0 13.6 0zM2.4 14.4a.8.8 0 0 1-.8-.8v-3.448l2.632-2.64a.8.8 0 0 1 1.136 0l6.88 6.888H2.4zm12-.8a.8.8 0 0 1-.056.288.8.8 0 0 1-.064.112.749.749 0 0 1-.072.096l-4.28-4.28.704-.704a.801.801 0 0 1 1.136 0l2.632 2.64V13.6zm0-4.112L12.896 8a2.464 2.464 0 0 0-3.392 0l-.704.704L6.496 6.4a2.464 2.464 0 0 0-3.392 0L1.6 7.888V2.4a.8.8 0 0 1 .8-.8h11.2a.8.8 0 0 1 .8.8v7.088zM9.2 3.2a1.2 1.2 0 1 0 0 2.4 1.2 1.2 0 0 0 0-2.4z" fill="#6D6A7C"/>
</svg>
