<svg width="16" height="16" viewBox="0 0 16 16" fill="none" xmlns="http://www.w3.org/2000/svg">
    <path d="M13.6 3.2h-2.4v-.8A2.4 2.4 0 0 0 8.8 0H7.2a2.4 2.4 0 0 0-2.4 2.4v.8H2.4A2.4 2.4 0 0 0 0 5.6v7.2a2.4 2.4 0 0 0 2.4 2.4h11.2a2.4 2.4 0 0 0 2.4-2.4V5.6a2.4 2.4 0 0 0-2.4-2.4zm-7.2-.8a.8.8 0 0 1 .8-.8h1.6a.8.8 0 0 1 .8.8v.8H6.4v-.8zm8 10.4a.8.8 0 0 1-.8.8H2.4a.8.8 0 0 1-.8-.8V8.4c.78.31 1.583.56 2.4.752v.472a.8.8 0 1 0 1.6 0v-.168a18.4 18.4 0 0 0 2.4.168 18.4 18.4 0 0 0 2.4-.168v.168a.8.8 0 0 0 1.6 0v-.472c.818-.191 1.62-.442 2.4-.752v4.4zm0-6.152c-.778.328-1.58.596-2.4.8V7.2a.8.8 0 0 0-1.6 0v.592c-1.591.24-3.209.24-4.8 0V7.2a.8.8 0 0 0-1.6 0v.264a16.313 16.313 0 0 1-2.4-.8V5.6a.8.8 0 0 1 .8-.8h11.2a.8.8 0 0 1 .8.8v1.048z" fill="#6D6A7C"/>
</svg>
