<svg width="14" height="13" viewBox="0 0 14 13" fill="none" xmlns="http://www.w3.org/2000/svg">
    <path d="M13.976 4.888a.677.677 0 0 0-.23-.312.713.713 0 0 0-.37-.14l-3.978-.561L7.615.38a.684.684 0 0 0-.258-.278.717.717 0 0 0-.742 0 .684.684 0 0 0-.258.278L4.574 3.868l-3.977.568a.71.71 0 0 0-.351.151.675.675 0 0 0-.216.308.654.654 0 0 0 .175.676l2.887 2.703-.699 3.838a.655.655 0 0 0 .038.378.68.68 0 0 0 .242.298.714.714 0 0 0 .734.047l3.579-1.804 3.565 1.811a.668.668 0 0 0 .322.081.716.716 0 0 0 .412-.128.68.68 0 0 0 .242-.299c.05-.12.063-.25.038-.377l-.7-3.838 2.888-2.703a.674.674 0 0 0 .215-.314.654.654 0 0 0 .008-.376zM9.677 7.591a.654.654 0 0 0-.203.601l.504 2.832L7.35 9.673a.718.718 0 0 0-.658 0l-2.628 1.351.503-2.831a.654.654 0 0 0-.202-.602L2.267 5.564l2.943-.412a.713.713 0 0 0 .314-.122.682.682 0 0 0 .218-.25l1.244-2.574L8.3 4.787c.05.1.125.185.218.25s.2.107.314.122l2.942.412-2.097 2.02z" fill="#9200d1"/>
</svg>
