<svg width="20" height="17" viewBox="0 0 20 17" fill="none" xmlns="http://www.w3.org/2000/svg">
    <path d="M19.994 1.188a.907.907 0 0 0-1.373-.78 6.8 6.8 0 0 1-1.702.72A4.685 4.685 0 0 0 13.852 0a4.757 4.757 0 0 0-4.747 4.598 10.028 10.028 0 0 1-6.192-3.563.92.92 0 0 0-.78-.332.908.908 0 0 0-.713.454 4.788 4.788 0 0 0-.22 4.33l-.002.002a.946.946 0 0 0-.45.807 2.76 2.76 0 0 0 .024.4 4.707 4.707 0 0 0 1.426 3.007.906.906 0 0 0-.06.7 4.727 4.727 0 0 0 2.146 2.653 6.79 6.79 0 0 1-3.262.407.909.909 0 0 0-.605 1.664A11.77 11.77 0 0 0 6.787 17c2.563.03 5.063-.789 7.112-2.327a11.612 11.612 0 0 0 4.217-6.176c.32-1.074.485-2.19.486-3.31v-.183a5.239 5.239 0 0 0 1.392-3.815zm-3.005 2.917a.903.903 0 0 0-.212.638c.009.15.008.3.008.442a9.824 9.824 0 0 1-.413 2.798 9.715 9.715 0 0 1-9.584 7.2 9.95 9.95 0 0 1-2.318-.273 8.617 8.617 0 0 0 2.674-1.42.909.909 0 0 0-.547-1.622 2.917 2.917 0 0 1-2.012-.848c.136-.026.27-.058.405-.096a.909.909 0 0 0-.073-1.765 2.908 2.908 0 0 1-2.045-1.567c.164.022.33.036.495.042A.928.928 0 0 0 4.261 7a.907.907 0 0 0-.364-1.032A2.903 2.903 0 0 1 2.61 3.362a11.832 11.832 0 0 0 7.46 3.16.928.928 0 0 0 .743-.326.907.907 0 0 0 .187-.788 2.863 2.863 0 0 1-.079-.662 2.933 2.933 0 0 1 4.095-2.69c.367.16.696.394.968.687a.902.902 0 0 0 .837.27c.373-.072.741-.17 1.102-.292-.246.502-.56.968-.933 1.384z" fill="#F0EEFC"/>
</svg>
