<svg width="24" height="23" viewBox="0 0 24 23" fill="none" xmlns="http://www.w3.org/2000/svg">
    <path d="M20.4 4.842h-3.6v-1.21c0-.964-.38-1.887-1.054-2.568A3.584 3.584 0 0 0 13.2 0h-2.4c-.955 0-1.87.383-2.546 1.064A3.648 3.648 0 0 0 7.2 3.632v1.21H3.6c-.955 0-1.87.383-2.546 1.064A3.648 3.648 0 0 0 0 8.474v10.894c0 .964.38 1.887 1.054 2.568A3.584 3.584 0 0 0 3.6 23h16.8c.955 0 1.87-.383 2.546-1.064A3.648 3.648 0 0 0 24 19.368V8.474c0-.963-.38-1.887-1.054-2.568A3.584 3.584 0 0 0 20.4 4.842zM9.6 3.632c0-.321.126-.63.351-.856.226-.227.53-.355.849-.355h2.4c.318 0 .623.128.849.355.225.227.351.535.351.856v1.21H9.6v-1.21zm12 15.736c0 .322-.126.63-.352.856-.225.227-.53.355-.848.355H3.6c-.318 0-.623-.128-.849-.355a1.216 1.216 0 0 1-.351-.856v-6.657c1.17.468 2.374.848 3.6 1.137v.715c0 .32.126.629.351.856a1.195 1.195 0 0 0 1.698 0c.225-.227.351-.535.351-.856v-.255c1.193.164 2.396.25 3.6.255a27.355 27.355 0 0 0 3.6-.255v.255c0 .32.126.629.351.856a1.195 1.195 0 0 0 1.697 0c.226-.227.352-.535.352-.856v-.715c1.226-.289 2.43-.67 3.6-1.138v6.658zm0-9.308a24.32 24.32 0 0 1-3.6 1.21v-.375c0-.321-.126-.63-.352-.856a1.194 1.194 0 0 0-1.697 0 1.216 1.216 0 0 0-.351.856v.896a23.925 23.925 0 0 1-7.2 0v-.896c0-.321-.126-.63-.351-.856a1.195 1.195 0 0 0-1.698 0 1.216 1.216 0 0 0-.351.856v.4a24.322 24.322 0 0 1-3.6-1.211v-1.61c0-.321.126-.63.351-.856.226-.227.53-.355.849-.355h16.8c.318 0 .623.128.849.355.225.227.351.535.351.856v1.585z" fill="#6D6A7C"/>
</svg>
