<svg width="18" height="15" viewBox="0 0 18 15" fill="none" xmlns="http://www.w3.org/2000/svg">
    <path d="m11.601 5.832-2.7-1.566a1.557 1.557 0 0 0-1.584 0 1.539 1.539 0 0 0-.783 1.368v3.132a1.54 1.54 0 0 0 .783 1.368 1.557 1.557 0 0 0 1.584 0l2.7-1.566a1.584 1.584 0 0 0 0-2.7v-.036zM8.316 8.388V6.012L10.368 7.2 8.316 8.388zM15.3 0H2.7A2.7 2.7 0 0 0 0 2.7v9a2.7 2.7 0 0 0 2.7 2.7h12.6a2.7 2.7 0 0 0 2.7-2.7v-9A2.7 2.7 0 0 0 15.3 0zm.9 11.7a.9.9 0 0 1-.9.9H2.7a.9.9 0 0 1-.9-.9v-9a.9.9 0 0 1 .9-.9h12.6a.9.9 0 0 1 .9.9v9z"/>
</svg>
